<?xml version="1.0" encoding="UTF-8"?>
<svg xmlns="http://www.w3.org/2000/svg" viewBox="0 0 640 640" width="640" height="640">
  <!-- Fundo preto -->
  <rect width="640" height="640" fill="#000000"/>

  <!-- Waveform verde: barras verticais espelhadas em torno do centro (y=290, área do MMU) -->
  <!-- Padrão pseudo-aleatório mas consistente, evocando um audio waveform -->
  <g fill="#007830">
    <!-- barras esquerda→direita, altura variável, largura ~6px, gap ~4px -->
    <rect x="10"  y="230" width="6" height="120"/>
    <rect x="20"  y="270" width="6" height="40"/>
    <rect x="30"  y="200" width="6" height="180"/>
    <rect x="40"  y="250" width="6" height="80"/>
    <rect x="50"  y="180" width="6" height="220"/>
    <rect x="60"  y="220" width="6" height="140"/>
    <rect x="70"  y="150" width="6" height="280"/>
    <rect x="80"  y="240" width="6" height="100"/>
    <rect x="90"  y="190" width="6" height="200"/>
    <rect x="100" y="260" width="6" height="60"/>
    <rect x="110" y="170" width="6" height="240"/>
    <rect x="120" y="210" width="6" height="160"/>
    <rect x="130" y="240" width="6" height="100"/>
    <rect x="140" y="180" width="6" height="220"/>
    <rect x="150" y="260" width="6" height="60"/>
    <rect x="160" y="200" width="6" height="180"/>
    <rect x="170" y="230" width="6" height="120"/>
    <rect x="180" y="170" width="6" height="240"/>
    <rect x="190" y="250" width="6" height="80"/>
    <rect x="200" y="220" width="6" height="140"/>
    <rect x="210" y="190" width="6" height="200"/>
    <rect x="220" y="140" width="6" height="300"/>
    <rect x="230" y="220" width="6" height="140"/>
    <rect x="240" y="180" width="6" height="220"/>
    <rect x="250" y="260" width="6" height="60"/>
    <rect x="260" y="200" width="6" height="180"/>
    <rect x="270" y="150" width="6" height="280"/>
    <rect x="280" y="240" width="6" height="100"/>
    <!-- área central (300–420) fica atrás do MMU, mas mantemos as barras -->
    <rect x="290" y="180" width="6" height="220"/>
    <rect x="300" y="220" width="6" height="140"/>
    <rect x="310" y="170" width="6" height="240"/>
    <rect x="320" y="240" width="6" height="100"/>
    <rect x="330" y="200" width="6" height="180"/>
    <rect x="340" y="150" width="6" height="280"/>
    <rect x="350" y="260" width="6" height="60"/>
    <rect x="360" y="220" width="6" height="140"/>
    <!-- lado direito -->
    <rect x="370" y="180" width="6" height="220"/>
    <rect x="380" y="240" width="6" height="100"/>
    <rect x="390" y="200" width="6" height="180"/>
    <rect x="400" y="140" width="6" height="300"/>
    <rect x="410" y="220" width="6" height="140"/>
    <rect x="420" y="180" width="6" height="220"/>
    <rect x="430" y="250" width="6" height="80"/>
    <rect x="440" y="190" width="6" height="200"/>
    <rect x="450" y="230" width="6" height="120"/>
    <rect x="460" y="170" width="6" height="240"/>
    <rect x="470" y="260" width="6" height="60"/>
    <rect x="480" y="200" width="6" height="180"/>
    <rect x="490" y="240" width="6" height="100"/>
    <rect x="500" y="180" width="6" height="220"/>
    <rect x="510" y="150" width="6" height="280"/>
    <rect x="520" y="240" width="6" height="100"/>
    <rect x="530" y="190" width="6" height="200"/>
    <rect x="540" y="260" width="6" height="60"/>
    <rect x="550" y="220" width="6" height="140"/>
    <rect x="560" y="180" width="6" height="220"/>
    <rect x="570" y="250" width="6" height="80"/>
    <rect x="580" y="200" width="6" height="180"/>
    <rect x="590" y="270" width="6" height="40"/>
    <rect x="600" y="230" width="6" height="120"/>
    <rect x="610" y="270" width="6" height="40"/>
    <rect x="620" y="240" width="6" height="100"/>
  </g>

  <!-- Texto "MMU" grande, branco, sans-serif condensado (Arial Black / Impact fallback) -->
  <text x="320" y="330"
        text-anchor="middle"
        font-family="'Arial Black', 'Helvetica Neue', Impact, sans-serif"
        font-weight="900"
        font-size="200"
        fill="#FFFFFF"
        letter-spacing="-2">MMU</text>

  <!-- Subtítulo -->
  <text x="320" y="500"
        text-anchor="middle"
        font-family="'Helvetica Neue', Arial, sans-serif"
        font-weight="600"
        font-size="26"
        fill="#FFFFFF"
        letter-spacing="4">MINISTÉRIO DE MÚSICA</text>
  <text x="320" y="535"
        text-anchor="middle"
        font-family="'Helvetica Neue', Arial, sans-serif"
        font-weight="600"
        font-size="26"
        fill="#FFFFFF"
        letter-spacing="4">PIPT</text>
</svg>
